<svg width="114" height="114" viewBox="0 0 114 114" fill="none" xmlns="http://www.w3.org/2000/svg">
<circle cx="57" cy="57" r="57" fill="#E4C9C9"/>
<path d="M71 50.875C77.0175 50.875 81.8388 46.0175 81.8388 40C81.8388 33.9825 77.0175 29.125 71 29.125C64.9825 29.125 60.125 33.9825 60.125 40C60.125 46.0175 64.9825 50.875 71 50.875ZM42 50.875C48.0175 50.875 52.8387 46.0175 52.8387 40C52.8387 33.9825 48.0175 29.125 42 29.125C35.9825 29.125 31.125 33.9825 31.125 40C31.125 46.0175 35.9825 50.875 42 50.875ZM42 58.125C33.5538 58.125 16.625 62.3662 16.625 70.8125V79.875H67.375V70.8125C67.375 62.3662 50.4463 58.125 42 58.125ZM71 58.125C69.9487 58.125 68.7525 58.1975 67.4837 58.3063C71.6887 61.3512 74.625 65.4475 74.625 70.8125V79.875H96.375V70.8125C96.375 62.3662 79.4463 58.125 71 58.125Z" fill="white"/>
</svg>
