<svg width="114" height="114" viewBox="0 0 114 114" fill="none" xmlns="http://www.w3.org/2000/svg">
<circle cx="57" cy="57" r="57" fill="#E4C9C9"/>
<path d="M27.3333 86.6667C25.3167 86.6667 23.5909 85.9492 22.156 84.5143C20.7211 83.0794 20.0024 81.3524 20 79.3333V35.3333C20 33.3167 20.7187 31.5909 22.156 30.156C23.5933 28.7211 25.3191 28.0024 27.3333 28H86C88.0167 28 89.7437 28.7187 91.181 30.156C92.6183 31.5933 93.3358 33.3191 93.3333 35.3333V79.3333C93.3333 81.35 92.6159 83.077 91.181 84.5143C89.7461 85.9517 88.0191 86.6691 86 86.6667H27.3333ZM56.6667 61L86 42.6667V35.3333L56.6667 53.6667L27.3333 35.3333V42.6667L56.6667 61Z" fill="white"/>
</svg>
