<svg width="735" height="435" viewBox="0 0 735 435" fill="none" xmlns="http://www.w3.org/2000/svg">
<path d="M224.8 305.81H219.55C221.42 308.23 223.18 308.9 225.43 308.43C232.24 307.01 239.04 305.53 245.86 304.15C247.06 303.91 248.37 303.94 249.59 304.11C254.44 304.76 259.26 305.58 264.11 306.16C265.1 306.28 266.28 305.82 267.19 305.31C272.76 302.17 278.68 302.29 284.78 302.95C287.65 303.26 290.61 302.58 293.54 302.56C303.82 302.51 314.09 302.62 324.37 302.53C334.83 302.43 345.29 302.16 355.74 301.96C356.99 301.94 358.23 301.86 359.48 301.83C370.55 301.58 381.62 301.42 392.68 301.05C403.95 300.67 415.22 300.15 426.49 299.56C439.1 298.9 451.7 298.11 464.3 297.3C466.48 297.16 468.64 296.64 470.72 296.31C470.06 291.8 465.99 287.39 470.38 281.76C471.07 283.96 471.57 285.42 471.98 286.9C474.51 295.95 480.16 302.16 488.89 305.57C505.41 312.02 521.61 309.66 537.72 303.84C550.88 299.08 562.58 291.7 573.72 283.5C591.55 270.37 606.32 253.93 621.9 238.39C621.69 238.13 621.48 237.88 621.27 237.62C618.88 239.5 616.49 241.39 614.1 243.27C608.32 247.83 602.5 252.25 595.38 254.67C591.77 255.89 587.94 255.96 585.9 253.1C584.37 250.96 584.05 247.03 584.8 244.35C587.27 235.53 592.04 227.84 598.17 220.99C607.55 210.5 618.78 202.46 631.26 196.14C637.52 192.97 644.03 190.9 651.29 190.8C656.2 190.73 658.46 194.77 656.37 199.06C655.84 200.14 655.34 201.23 654.49 203.04C658 200.32 660.92 198.11 663.78 195.82C666.86 193.34 670.33 192.89 674.72 193.44C671.28 197.32 668.23 200.82 665.12 204.26C657.39 212.79 649.71 221.37 641.88 229.8C630.74 241.8 619.86 254.08 608.16 265.51C592.64 280.68 575.71 294.17 555.65 303.05C543.77 308.31 531.54 312.13 518.35 313.26C505.73 314.34 493.89 312.95 482.7 307.05C480.24 305.75 477.82 304.12 475.87 302.17C473.52 299.82 471.37 298.52 467.83 299.49C463.72 300.62 459.31 300.69 455.24 301.92C451.96 302.92 449.16 304.12 446.27 301.15C445.88 300.75 443.69 301.38 442.99 302.14C440.82 304.51 438.22 304.79 435.25 304.88C422.46 305.26 409.67 305.82 396.89 306.34C391.56 306.56 386.22 306.71 380.9 307.1C372.41 307.73 363.94 308.86 355.43 309.17C348.13 309.44 340.8 308.65 333.48 308.72C329.94 308.75 326.25 307.3 322.78 310.22C321.43 311.36 318.33 311.23 316.32 310.66C310.72 309.06 305.79 310.89 300.67 312.56C301.79 313.79 302.76 314.86 303.73 315.93C303.59 316.23 303.45 316.52 303.31 316.82C294.4 315.68 285.54 320.61 276.47 317.33C276.63 316.37 276.63 316.12 276.72 315.9C277.27 314.51 277.85 313.12 278.41 311.73C276.84 311.92 275.26 312.02 273.72 312.33C270.76 312.93 267.82 313.65 263.71 314.59C266.08 315.59 267.38 316.13 269.44 317C267.96 317.86 266.98 318.87 265.9 318.98C261.6 319.41 257.26 319.49 252.95 319.82C247.43 320.25 241.85 320.46 236.41 321.44C232.33 322.17 227.91 321.63 224.17 324.17C223.48 324.64 222.1 324.56 221.24 324.21C217.83 322.83 214.74 323.72 211.58 325.06C210.4 325.56 209.05 325.63 207.71 325.91V321.6C207.41 321.41 207.12 321.21 206.82 321.02C205.95 325.17 205.04 329.26 199.28 326.59C199.35 327.07 199.43 327.55 199.5 328.03L211.05 329.3C211.1 329.72 211.14 330.13 211.19 330.55C209.14 331.06 207.12 331.71 205.04 332.04C198.7 333.02 192.37 334.03 185.99 334.73C182.53 335.11 180.65 332.95 179.73 329.7C179.06 327.32 178.04 325.04 177.17 322.72C176.81 322.83 176.45 322.94 176.1 323.05C176.29 323.84 176.62 324.63 176.65 325.43C176.68 326.2 176.4 326.99 176.21 328.03C174.43 327.2 173.03 326.55 171.34 325.76C170.74 326.87 170.13 328 169.45 329.25C173.16 330.47 178.49 328.08 179.8 334.1C176.607 334.96 175.83 336.403 177.47 338.43C176.937 338.99 174.687 338.547 170.72 337.1C170.86 340.52 170.05 341.14 167.08 339.63C165.55 338.86 164.54 338.76 162.86 339.76C160.1 341.41 156.98 341.55 154.26 338.74C156.67 334.36 161.71 335.2 165.3 333.24C161.86 328.89 157.88 329.98 153.82 331.63C153.49 331.77 153.03 331.88 152.73 331.76C147.6 329.73 143.27 332.25 138.68 333.92C136.77 334.61 134.36 333.92 131.67 333.84C131.02 335.49 129.44 337.23 126.14 337.3C122.48 337.37 118.83 338.38 115.17 338.42C112.99 338.45 110.21 337.97 111.1 334.18C112.36 334.1 113.58 334.02 114.82 333.94C112.71 331.28 110.33 330.83 107.91 333.09C104.83 335.97 101.64 336.45 97.49 335.73C92.68 334.89 87.66 335.26 82.73 335.09C82.19 335.07 81.63 334.99 81.13 334.8C79.76 334.28 78.42 333.7 76.33 332.83C77.18 332.31 78.17 331.22 79.24 331.14C82.47 330.9 85.74 331.24 88.97 331C93.24 330.68 97.54 330.27 101.73 329.42C103.88 328.98 106.5 328.6 106.89 325.21C107 324.2 107.66 320.72 110.79 322.58C110.88 322.63 111.34 322.16 111.56 321.88C113.49 319.43 115.51 317.95 119.06 319.02C120.59 319.49 122.65 317.82 124.53 317.63C129.69 317.1 134.88 316.84 139.77 316.5C140.36 315.84 140.8 314.97 141.51 314.64C142.8 314.02 144.42 313.97 145.58 313.19C146.51 312.56 147.41 311.23 147.44 310.18C147.46 309.41 146.18 308.29 145.24 307.87C142.35 306.6 139.27 305.76 136.41 304.44C133.36 303.03 133.52 302.32 136.07 300.33C137.54 299.19 138.49 297.39 139.46 294.96C138 295.31 136.5 295.52 135.1 296.05C131.33 297.46 127.65 294.82 128.11 290.98C128.42 288.36 129.89 287.54 132.46 287.56C137.32 287.61 137.91 286.47 135.8 282.07C135.03 280.46 134.43 278.78 133.31 276.07C135.43 276.63 136.89 276.56 137.46 277.24C141.28 281.79 145.92 280.7 150.56 279.34C153.84 278.38 157.03 277.12 160.28 276.06C160.93 275.85 161.87 275.62 162.34 275.92C168 279.58 173.76 277.42 179.57 276.52C181.07 276.29 182.78 277.39 184.39 277.88C184.32 278.25 184.26 278.61 184.19 278.98C179.79 279.6 175.35 280.03 171.01 280.96C169.55 281.27 168.37 282.89 167.07 283.91C168.41 284.89 169.72 286.68 171.1 286.73C179.11 287.06 187.13 287.13 195.15 287.01C202.84 286.89 210.53 286.39 218.22 286.16C219.03 286.14 219.86 286.79 220.68 287.12C220.69 287.45 220.7 287.78 220.71 288.11C217.67 288.68 214.66 289.62 211.6 289.77C198.46 290.42 185.28 291.5 172.16 291.06C165.44 290.84 158.96 291.67 152.37 292.11C151.42 292.17 150.41 292.43 149.58 292.87C148.83 293.27 148.29 294.05 147.65 294.67C148.54 294.85 149.46 295.25 150.32 295.16C153.56 294.82 156.78 294.31 160.11 294.14C157.35 295.2 154.59 296.26 151.83 297.33C151.98 297.79 152.13 298.26 152.29 298.72C154.42 298.26 156.54 297.53 158.69 297.38C170.65 296.54 182.62 295.81 194.59 295.09C207.44 294.31 220.28 293.55 233.14 292.86C239.59 292.51 246.05 292.42 252.5 292.08C265.78 291.38 279.13 291.23 292.3 289.61C300.77 288.57 308.93 289.15 317.29 289.65C322.87 289.98 328.54 288.54 334.19 288.03C336.42 287.83 338.69 288 340.94 288C340.98 288.35 341.01 288.71 341.05 289.06C337.36 289.82 333.71 290.93 329.98 291.27C321.98 292 313.93 292.24 305.91 292.87C294.6 293.76 283.31 294.9 272 295.79C266.57 296.22 261.11 296.38 255.66 296.57C247.21 296.87 238.76 297.09 230.31 297.33C229.44 297.36 228.52 297.16 227.7 297.37C225.49 297.93 223.32 298.65 221.14 299.31C222.2 300.88 223.3 302.42 224.3 304.02C224.6 304.49 224.64 305.12 224.83 305.8L224.8 305.81ZM591.19 250.74C591.68 251.25 592.17 251.76 592.67 252.27C595.24 251.1 598.13 250.35 600.32 248.68C608.04 242.81 615.95 237.08 622.99 230.46C632.81 221.22 642 211.31 651.24 201.47C652.67 199.94 652.9 197.29 653.69 195.15C653.29 194.79 652.89 194.43 652.5 194.07C649.57 195.13 646.33 195.69 643.77 197.32C625.09 209.25 608.83 223.89 595.58 241.71C593.62 244.35 592.63 247.7 591.19 250.72V250.74ZM196.7 326.94C196.41 326.62 196.13 326.29 195.84 325.97C194.1 326.32 192.37 326.68 190.63 327.03C190.58 326.84 190.54 326.65 190.49 326.46C189.32 327.03 188.14 327.59 186.68 328.3C186.56 326.23 186.47 324.82 186.38 323.4C185.4 325.08 184.9 326.87 185.18 328.53C185.34 329.47 186.68 330.78 187.62 330.89C189.24 331.09 191.1 330.8 192.59 330.12C194.12 329.43 195.34 328.03 196.69 326.94H196.7Z" fill="#9A8585"/>
<path d="M307.67 133.52C294.86 136.99 283.1 143.75 272.45 152.12C261.02 161.1 250.11 170.78 239.39 180.6C230.85 188.42 222.97 196.97 214.71 205.11C204.95 214.72 195.34 224.49 185.24 233.73C170 247.68 152.85 258.69 132.84 264.54C119.22 268.52 105.36 270.2 91.45 265.89C80.64 262.54 75.41 254.56 74.87 243.33C74.2 229.34 79.46 217.78 88.6 207.58C103.62 190.82 122.23 180.59 144.32 176.55C144.53 176.51 144.7 176.24 145.11 175.89C141.31 170.31 140.6 163.9 141.91 157.65C143.74 148.87 148.84 141.9 155.9 136.24C169.83 125.07 186.27 120.55 203.4 117.5C217.6 114.97 231.9 114.08 246.25 114.68C256.19 115.1 266.16 116.09 275.98 117.67C290.31 119.98 304.57 122.85 318.76 125.92C323.47 126.94 327.93 129.17 332.41 131.09C333.37 131.5 333.9 132.92 334.63 133.88C333.53 133.85 332.3 134.13 331.34 133.74C320.96 129.53 316.68 130.58 308.39 138.39C295.73 150.3 285.74 164.4 275.05 177.94C265.69 189.79 256.3 201.61 246.89 213.42C244.83 216 242.63 218.46 240.81 221.35C244.56 218.24 248.31 215.14 252.05 212.02C264.15 201.92 275.95 191.43 288.41 181.8C302.64 170.81 317.12 160.06 332.12 150.16C351.54 137.35 372.01 126.38 394.49 119.65C403.55 116.94 412.74 115.54 422.17 116.17C424.18 116.31 426.11 117.63 428.08 118.41C427.95 118.8 427.81 119.19 427.68 119.59C426.99 119.65 426.21 119.95 425.61 119.74C418.4 117.23 411.6 119.18 405.09 121.99C394.47 126.56 384.89 132.86 375.72 139.96C358.14 153.58 341.94 168.71 326.67 184.79C314.09 198.04 302.04 211.82 290.18 225.73C282.71 234.49 276.09 243.96 268.95 253.01C267.89 254.35 266.2 255.54 264.57 255.99C262.24 256.64 260.86 255.31 260.73 252.77C260.46 247.71 262.48 243.34 265.23 239.43C269.74 233.02 274.26 226.55 279.47 220.72C291.69 207.05 303.84 193.25 316.93 180.44C327.64 169.96 339.35 160.42 351.21 151.22C362.57 142.41 374.69 134.57 386.11 126.56C381.87 128.31 377.01 130.12 372.31 132.28C350.4 142.35 330.63 155.93 311.29 170.14C299.14 179.06 287.23 188.32 275.45 197.72C262.58 208 250.05 218.7 237.24 229.06C229.64 235.21 223.56 242.67 217.49 250.23C215.39 252.84 212.43 254.8 209.71 256.85C209.02 257.37 207.11 257.5 206.85 257.1C206.23 256.16 205.66 254.36 206.15 253.65C208.63 250.03 210.83 245.75 214.28 243.37C222.1 237.98 226.49 230.08 231.46 222.57C240.23 209.33 248.63 195.84 257.5 182.66C265.52 170.74 274.85 159.8 285.58 150.27C292.57 144.06 300.52 138.91 307.71 133.54L307.67 133.52ZM316.27 127.75C306.11 126.34 295.98 124.69 285.78 123.6C274.02 122.33 262.23 120.97 250.42 120.73C238.55 120.49 226.6 121.04 214.79 122.22C205.35 123.16 195.91 124.99 186.75 127.46C173.87 130.94 161.79 136.34 152.59 146.62C147.43 152.38 144.81 159.07 145.35 166.82C145.77 172.84 148.46 175.21 154.39 175.25C161.53 175.29 168.69 174.69 175.6 177.45C186.69 181.88 190.05 191.36 187.18 201.56C186.41 204.31 185.43 204.83 182.72 204.7C183.09 203.39 183.41 202.12 183.8 200.86C185.81 194.32 183.29 185.49 177.68 182.94C172.67 180.66 167.1 178.8 161.66 178.45C152.95 177.89 144.34 180.07 136.23 183.28C119.44 189.92 104.31 199.26 92.3 212.97C84.4 222 78.55 231.96 79.3 244.75C79.77 252.79 84.38 259.34 92 262.21C102.02 265.98 111.87 264.4 121.58 261.54C143.21 255.16 161.76 243.11 178.85 228.83C189.85 219.64 200.24 209.71 210.8 200C222.02 189.68 232.84 178.9 244.36 168.93C253.71 160.83 263.59 153.26 273.68 146.08C286.43 137.01 300.63 130.99 316.25 127.75H316.27Z" fill="#9A8585"/>
<path d="M445.91 239.35C438.7 243.94 431.88 248.46 424.86 252.62C422.51 254.01 419.6 255.19 416.96 255.17C414.28 255.15 410.88 254.24 409.1 252.44C406.33 249.63 406.9 245.46 408.37 241.98C411.27 235.12 415.97 229.52 421.5 224.56C427.97 218.76 434.33 212.85 440.68 206.91C443.63 204.15 446.49 201.27 449.24 198.31C449.93 197.57 450.04 196.3 450.41 195.28C449.28 195.37 447.95 195.1 447.04 195.59C438.03 200.48 428.62 204.82 420.26 210.66C410.71 217.33 401.65 224.87 393.24 232.94C385.92 239.96 379.79 248.24 373.13 255.97C369.73 253.51 368.89 250.77 371.65 246.67C376.62 239.26 381.55 231.69 387.54 225.12C395.78 216.08 404.99 207.94 413.74 199.37C414.81 198.32 415.6 196.99 416.52 195.79C416.32 195.41 416.13 195.02 415.93 194.64C413.63 195.3 411.18 195.65 409.05 196.67C396.4 202.7 384.6 210.15 373.87 219.15C367.23 224.72 360.79 230.58 354.77 236.8C349.48 242.27 344.91 248.43 340 254.26C339.39 254.99 338.62 255.58 337.7 256.45C332.61 249.93 338.06 245.18 339.6 239.59C337.18 241.34 334.78 243.1 332.35 244.82C325.72 249.53 318.68 253.68 310.62 255.06C302.61 256.44 297.14 254.57 296.05 248.29C295.06 242.57 296.46 236.97 299.51 232.04C311.36 212.89 328.81 200.55 349.26 192.15C352.2 190.94 355.82 190.98 359.08 191.16C360.55 191.24 362.48 192.79 363.21 194.18C364.59 196.85 363.51 199.55 361.79 201.9C355.29 210.79 345.98 215.17 335.71 217.9C333.72 218.43 331.51 218.92 329.54 218.58C326.49 218.05 324.23 219.27 322.49 221.21C316.22 228.21 309.08 234.62 305.33 243.51C304.52 245.43 304.31 248.21 305.11 250.03C306.12 252.36 308.64 251.42 310.93 251.04C319.91 249.57 326.96 244.28 333.9 239.22C341.64 233.57 348.77 227.02 355.81 220.48C361.26 215.41 365.94 209.51 371.38 204.44C376.46 199.7 381.71 194.9 388.7 193.01C391.57 192.24 394.59 192.06 398.29 191.5C389.65 199.21 381.69 206.31 373.74 213.41L374.31 214.07C379.28 210.61 384.01 206.73 389.28 203.79C397.14 199.41 405.35 195.65 413.44 191.7C416.46 190.23 420.27 190.24 421.92 192.69C423.34 194.8 422.52 198.44 422.57 201.41C422.58 202.31 422.16 203.23 421.81 204.64C427.93 201.23 433.53 197.84 439.38 194.97C442.95 193.22 446.83 191.55 450.71 191.13C457.42 190.4 460.4 194.5 457.81 200.89C456.24 204.75 453.81 208.54 450.9 211.51C440.62 222 429.93 232.1 419.48 242.43C417.94 243.95 416.72 245.87 415.64 247.77C415.18 248.58 415.5 249.83 415.46 250.87C416.32 250.89 417.2 251.04 418.04 250.91C425.22 249.75 430.62 245.17 436.31 241.2C439.62 238.89 443.08 236.63 445.87 233.76C449.38 230.17 452.26 225.96 455.44 222.05C467.4 207.31 481.83 196.13 500.54 191.4C503.59 190.63 507.01 190.74 510.18 191.12C513.96 191.57 516.31 196.28 514.31 200.54C511.44 206.66 508.51 213.12 504.1 218.09C496.24 226.95 487.59 235.2 478.6 242.93C472.66 248.03 466.06 252.59 458.14 254.71C447.18 257.64 443.72 249.23 445.35 241.27C445.47 240.69 445.69 240.14 445.92 239.35H445.91ZM507.42 194.43C506.17 194.86 504.74 195.03 503.69 195.75C498.35 199.41 493 203.06 487.87 206.99C475.62 216.35 465.29 227.64 455.93 239.81C454 242.32 452.7 245.54 451.91 248.64C451.25 251.26 453.24 252.53 455.91 251.77C456.96 251.47 458.15 251.28 458.98 250.65C465.71 245.56 472.77 240.81 478.96 235.11C486.75 227.94 494.06 220.18 501.09 212.25C504.68 208.2 507.33 203.28 510.18 198.62C511.91 195.8 510.73 194.44 507.4 194.42L507.42 194.43ZM359.62 194.3C354.16 193.96 332.18 209.79 328.76 216.33C342.49 213.39 356.79 203.28 359.62 194.3Z" fill="#9A8585"/>
<path d="M643.26 94.39C638.62 107.03 632.24 117.49 620.7 124.15C625.2 123.39 629.7 122.62 635.36 121.66C634.27 123.8 633.94 125.32 633 126.15C623.22 134.84 613.3 143.37 603.54 152.07C601.64 153.76 600.39 156.16 598.59 157.98C596.46 160.13 594.33 162.53 591.71 163.91C586.58 166.62 583.41 171.11 580.18 175.49C572.71 185.62 565.21 195.51 554.77 203.07C548.22 207.81 541.32 211.19 533.6 212.47C526.16 213.7 524 219.28 521.55 224.81C520.04 228.22 519.37 232.01 517.85 235.42C515.53 240.63 512.8 245.65 510.27 250.76C509.73 251.86 508.67 253.16 508.91 254.11C509.88 258.02 506.9 259.54 504.93 261.82C501.66 265.62 498.64 269.63 495.49 273.53C494.91 274.24 494.22 274.85 493.57 275.51C493.62 274.52 493.42 273.44 493.75 272.56C495.87 266.95 498.21 261.43 500.3 255.81C503.43 247.36 506.12 238.74 509.56 230.42C511.82 224.96 514.87 219.8 517.92 214.72C520.12 211.05 522.41 207.74 523.24 203.22C524.04 198.87 526.58 194.71 528.88 190.78C532.36 184.83 536.05 178.97 540.13 173.41C544.1 168.01 548.45 162.85 553.01 157.93C558.91 151.57 564.86 145.2 571.38 139.5C578.65 133.14 586.43 127.31 594.27 121.65C602.53 115.68 610.91 109.81 619.66 104.59C626.32 100.62 633.62 97.73 640.67 94.42C641.16 94.19 641.86 94.39 643.28 94.39H643.26ZM626.74 111.89C621.39 111.6 613.98 114.75 611.79 118.42C613.85 117.84 615.72 117.3 617.6 116.77C617.7 117 617.81 117.23 617.91 117.45C612.37 121.51 606.83 125.58 601.76 129.3C606.62 128.8 621.65 118.49 626.66 111.81C628.66 110.46 630.55 108.89 632.68 107.8C636.9 105.63 637.16 105.51 637.2 102.57C633.88 103.56 630.62 104.53 627.37 105.5C627.41 105.67 627.44 105.83 627.48 106C629.05 105.79 630.63 105.57 632.2 105.36C631.57 106.27 630.49 106.48 630.18 107.08C629.27 108.87 625.9 108.9 626.76 111.88L626.74 111.89ZM604.17 137.05C599.7 139.11 594.79 141.75 589.62 143.68C576.27 148.68 576.22 148.55 575.11 151.3C579.93 149.53 584.61 147.81 589.29 146.09L589.63 147.06C588.24 147.58 586.85 148.1 585.23 148.7C586 148.96 586.57 149.15 587.13 149.34C582.55 152.9 578.12 156.34 574.07 159.49C573.81 159.41 574.46 159.62 574.8 159.73C572.88 161.21 570.9 162.73 568.16 164.85H575.84C573.47 167.43 571.64 169.44 569.81 171.44C575.79 169.43 581.38 167.09 586.95 164.73C587.63 164.44 588.25 164 588.9 163.65C591.2 162.43 592.08 160.76 590.91 158.78C588.97 158.4 587.4 158.09 585.11 157.64C589.75 154.91 593.45 152.73 597.14 150.53C597.91 150.07 598.66 149.55 599.33 148.95C600.39 148 601.2 146.53 602.42 146.05C607.87 143.91 613.36 141.95 617.72 137.77C620.21 135.38 622.84 133.13 625.58 130.66C623.62 129.44 622.44 128.69 620.71 127.62C623.38 126.84 625.38 126.25 627.38 125.67C627.28 125.31 627.18 124.95 627.08 124.6C623.5 125.57 619.91 126.54 615.94 127.62C616.91 128.02 617.42 128.24 618.79 128.8C615.7 129.4 613.45 129.83 611.2 130.27C611.24 130.51 611.29 130.76 611.33 131C612.31 130.94 613.29 130.88 614.26 130.82C614.29 130.99 614.32 131.16 614.34 131.34C612.5 131.75 610.67 132.17 608.57 132.64C609.36 133.13 609.87 133.46 610.9 134.1C607.63 134.98 604.9 135.72 602.18 136.46C602.19 136.61 602.2 136.75 602.21 136.9C603.14 136.97 604.07 137.03 604.16 137.04L604.17 137.05ZM573.15 181.78C573.02 181.66 572.89 181.54 572.75 181.41C570.11 182.92 567.47 184.42 564.96 185.86C565.25 177.5 571.12 174.44 577.77 172.11L577.13 171.25C570.89 174.1 564.65 176.96 558.4 179.81C558.49 180.04 558.59 180.28 558.68 180.51C560.36 180 562.05 179.48 563.73 178.97C563.81 179.22 563.89 179.47 563.97 179.72C559.77 181.35 555.57 182.98 551.37 184.61C551.48 184.73 551.6 184.85 551.71 184.97H556.81C556.81 185.12 556.8 185.28 556.79 185.43C555.81 185.82 554.83 186.2 553.53 186.72C554.45 187.08 554.98 187.29 555.55 187.52C553.27 190.48 551.01 193.42 548.94 196.1C549.22 196.29 549.92 196.77 550.63 197.26C550.03 197.67 549.45 198.12 548.82 198.47C546.94 199.51 544.32 200.05 543.28 201.63C541.09 204.95 538.68 207.44 534.71 208.32C533.3 208.63 532 209.4 530.18 210.15C536.89 211.79 548.54 205.4 555.57 199.61C555.22 199.18 554.88 198.74 554.53 198.31C555.48 197.88 556.4 197.36 557.38 197.03C558.91 196.51 560.72 196.46 561.99 195.59C563.36 194.65 564.26 193.01 565.34 191.65C567.95 188.36 570.53 185.07 573.13 181.77L573.15 181.78ZM548.54 171.68C548.91 172.01 549.29 172.35 549.66 172.68C550.37 171.53 550.94 170.26 551.83 169.26C555.24 165.4 558.47 161.33 562.29 157.93C565.35 155.21 566.45 152.41 565.08 147.71C560.6 152.33 556.6 156.82 552.2 160.88C548.83 163.98 548.14 167.57 548.54 171.68ZM582.34 138.02C588.87 132.49 595.27 127.15 601.53 121.66C602.46 120.84 602.72 119.24 603.28 118.01C597.02 121.37 591.62 125.11 586.29 128.96C584.3 130.4 582.24 131.89 580.69 133.75C580.04 134.53 580.65 136.36 580.72 137.71C580.72 137.82 580.99 137.92 581.14 138.03C581.34 137.55 581.52 137.12 581.75 136.56C582.02 137.23 582.24 137.76 582.34 138.02ZM532.11 193.94C539.58 184.12 539.14 185.54 538.06 178.88C535.84 184 531.19 187.53 532.11 193.94ZM523.5 209.84C523.91 210.08 524.32 210.32 524.73 210.57C529.17 203.71 533.61 196.84 538.06 189.98C537.74 189.78 537.43 189.57 537.11 189.37C532.58 196.2 528.04 203.02 523.51 209.85L523.5 209.84Z" fill="#9A8585"/>
<path d="M594.57 190.97C594.82 190.97 595.07 190.99 595.32 190.97C603.56 190.18 604.55 194.86 602.54 201.37C600.86 206.82 597.76 212.2 594.1 216.61C583.98 228.79 572.79 240.01 559.29 248.53C555.23 251.09 550.63 252.86 546.14 254.65C537.89 257.93 532.16 250.25 533.6 242.8C535.1 235.05 539 228.26 543.92 222.07C552.47 211.31 562.91 202.79 575.04 196.47C581.08 193.32 587.44 190.56 594.58 190.97H594.57ZM600.2 195.66C599.65 195.07 599.1 194.48 598.55 193.9C595.23 195.15 591.6 195.92 588.67 197.78C584.04 200.71 579.83 204.34 575.51 207.75C563.23 217.44 552.63 228.75 543.46 241.39C541.94 243.49 540.83 246.11 540.32 248.64C539.78 251.31 541.71 252.67 544.33 251.75C546.61 250.95 549.05 250.14 550.91 248.68C557.09 243.83 563.03 238.67 569.09 233.66C579.04 225.44 587.47 215.8 594.99 205.38C597.12 202.43 598.49 198.92 600.21 195.67L600.2 195.66Z" fill="#9A8585"/>
<path d="M343.84 279.83C342.11 280.17 340.4 280.67 338.65 280.83C327 281.87 315.34 282.84 303.68 283.84C297.78 284.34 291.89 285.11 285.98 285.3C272.93 285.72 259.87 285.88 246.82 286.07C245.16 286.09 243.5 285.65 241.83 285.42C241.8 284.95 241.76 284.49 241.73 284.02C243.74 283.73 245.74 283.29 247.75 283.19C252 282.98 256.26 283.09 260.5 282.82C263.92 282.6 267.33 282.08 270.72 281.59C276.65 280.74 282.55 279.47 288.51 279.02C295.36 278.49 302.26 278.59 309.15 278.53C315.51 278.48 321.87 278.59 328.22 278.61C333.39 278.63 338.55 278.61 343.72 278.61C343.75 279.02 343.79 279.43 343.82 279.83H343.84Z" fill="#9A8585"/>
<path d="M247.48 280.32C245.26 280.86 243.73 281.53 242.2 281.56C235.85 281.68 229.46 281.19 223.15 281.71C212.76 282.57 202.43 284.07 192.07 285.2C190.52 285.37 188.92 285.01 187.34 284.89C187.27 284.36 187.2 283.82 187.14 283.29C189.12 282.73 191.08 281.76 193.07 281.69C200.83 281.41 208.27 279.91 215.75 277.76C219.54 276.67 224.07 277.32 228.08 278.09C231.4 278.72 234.47 278.78 237.75 278.22C240.77 277.7 244.05 276.88 247.48 280.34V280.32Z" fill="#9A8585"/>
<path d="M125.83 309.05C124.1 310.63 122.58 312.62 120.56 313.65C119.31 314.29 117 313.97 115.71 313.19C113.65 311.94 111.87 310.09 110.29 308.22C108.45 306.04 109.09 303.9 111.92 303.34C115.01 302.73 118.29 302.43 121.4 302.77C124.19 303.07 125.27 305.45 125.83 309.05Z" fill="#9A8585"/>
<path d="M232.13 264.58C225.55 267.06 218.69 266.94 211.74 265.56C218.38 263.66 225.27 264.78 232.13 264.58Z" fill="#9A8585"/>
</svg>
